<?xml version="1.0" encoding="utf-8" standalone="no"?>
<!DOCTYPE svg PUBLIC "-//W3C//DTD SVG 1.1//EN"
  "http://www.w3.org/Graphics/SVG/1.1/DTD/svg11.dtd">
<svg xmlns:xlink="http://www.w3.org/1999/xlink" width="550.512pt" height="277.9pt" viewBox="0 0 550.512 277.9" xmlns="http://www.w3.org/2000/svg" version="1.1">
 <metadata>
  <rdf:RDF xmlns:dc="http://purl.org/dc/elements/1.1/" xmlns:cc="http://creativecommons.org/ns#" xmlns:rdf="http://www.w3.org/1999/02/22-rdf-syntax-ns#">
   <cc:Work>
    <dc:type rdf:resource="http://purl.org/dc/dcmitype/StillImage"/>
    <dc:date>2022-09-23T14:58:28.739320</dc:date>
    <dc:format>image/svg+xml</dc:format>
    <dc:creator>
     <cc:Agent>
      <dc:title>Matplotlib v3.5.1, https://matplotlib.org/</dc:title>
     </cc:Agent>
    </dc:creator>
   </cc:Work>
  </rdf:RDF>
 </metadata>
 <defs>
  <style type="text/css">*{stroke-linejoin: round; stroke-linecap: butt}</style>
 </defs>
 <g id="figure_1">
  <g id="patch_1">
   <path d="M 0 277.9 
L 550.512 277.9 
L 550.512 0 
L 0 0 
L 0 277.9 
z
" style="fill: none"/>
  </g>
  <g id="axes_1">
   <g id="patch_2">
    <path d="M 533.214 252.782 
C 534.187826 252.782 535.121897 252.395095 535.810496 251.706496 
C 536.499095 251.017897 536.886 250.083826 536.886 249.11 
C 536.886 248.136174 536.499095 247.202103 535.810496 246.513504 
C 535.121897 245.824905 534.187826 245.438 533.214 245.438 
C 532.240174 245.438 531.306103 245.824905 530.617504 246.513504 
C 529.928905 247.202103 529.542 248.136174 529.542 249.11 
C 529.542 250.083826 529.928905 251.017897 530.617504 251.706496 
C 531.306103 252.395095 532.240174 252.782 533.214 252.782 
L 533.214 252.782 
z
" clip-path="url(#p4731de1f96)" style="fill: none; stroke: #000000; stroke-width: 2; stroke-linejoin: miter"/>
   </g>
   <g id="patch_3">
    <path d="M 349.614 160.982 
C 350.587826 160.982 351.521897 160.595095 352.210496 159.906496 
C 352.899095 159.217897 353.286 158.283826 353.286 157.31 
C 353.286 156.336174 352.899095 155.402103 352.210496 154.713504 
C 351.521897 154.024905 350.587826 153.638 349.614 153.638 
C 348.640174 153.638 347.706103 154.024905 347.017504 154.713504 
C 346.328905 155.402103 345.942 156.336174 345.942 157.31 
C 345.942 158.283826 346.328905 159.217897 347.017504 159.906496 
C 347.706103 160.595095 348.640174 160.982 349.614 160.982 
L 349.614 160.982 
z
" clip-path="url(#p4731de1f96)" style="fill: none; stroke: #000000; stroke-width: 2; stroke-linejoin: miter"/>
   </g>
   <g id="patch_4">
    <path d="M 288.414 130.382 
C 289.387826 130.382 290.321897 129.995095 291.010496 129.306496 
C 291.699095 128.617897 292.086 127.683826 292.086 126.71 
C 292.086 125.736174 291.699095 124.802103 291.010496 124.113504 
C 290.321897 123.424905 289.387826 123.038 288.414 123.038 
C 287.440174 123.038 286.506103 123.424905 285.817504 124.113504 
C 285.128905 124.802103 284.742 125.736174 284.742 126.71 
C 284.742 127.683826 285.128905 128.617897 285.817504 129.306496 
C 286.506103 129.995095 287.440174 130.382 288.414 130.382 
L 288.414 130.382 
z
" clip-path="url(#p4731de1f96)" style="fill: none; stroke: #000000; stroke-width: 2; stroke-linejoin: miter"/>
   </g>
   <g id="line2d_1">
    <path d="M 492.822 264.104 
L 509.870571 264.004082 
L 511.619143 263.704327 
L 513.367714 263.204735 
L 515.116286 262.505306 
L 516.864857 261.606041 
L 519.050571 260.200939 
L 521.236286 258.483592 
L 523.422 256.454 
L 525.607714 254.112163 
L 527.793429 251.458082 
L 529.542 249.11 
L 529.542 249.11 
L 526.919143 245.662816 
L 524.733429 243.133633 
L 522.547714 240.916694 
L 520.362 239.012 
L 518.176286 237.419551 
L 515.990571 236.139347 
L 514.242 235.34 
L 512.493429 234.74049 
L 510.744857 234.340816 
L 508.996286 234.14098 
L 508.122 234.116 
L 492.822 234.116 
L 492.822 234.116 
L 495.0252 236.564 
L 496.42056 238.4 
L 497.5956 240.236 
L 498.55032 242.072 
L 499.28472 243.908 
L 499.7988 245.744 
L 500.09256 247.58 
L 500.166 249.416 
L 500.01912 251.252 
L 499.65192 253.088 
L 499.0644 254.924 
L 498.25656 256.76 
L 497.2284 258.596 
L 495.97992 260.432 
L 494.51112 262.268 
L 492.822 264.104 
L 492.822 264.104 
" clip-path="url(#p4731de1f96)" style="fill: none; stroke: #000000; stroke-width: 2; stroke-linecap: round"/>
   </g>
   <g id="line2d_2">
    <path d="M 488.232 264.104 
L 488.81952 263.492 
L 489.38256 262.88 
L 489.92112 262.268 
L 490.4352 261.656 
L 490.9248 261.044 
L 491.38992 260.432 
L 491.83056 259.82 
L 492.24672 259.208 
L 492.6384 258.596 
L 493.0056 257.984 
L 493.34832 257.372 
L 493.66656 256.76 
L 493.96032 256.148 
L 494.2296 255.536 
L 494.4744 254.924 
L 494.69472 254.312 
L 494.89056 253.7 
L 495.06192 253.088 
L 495.2088 252.476 
L 495.3312 251.864 
L 495.42912 251.252 
L 495.50256 250.64 
L 495.55152 250.028 
L 495.576 249.416 
L 495.576 248.804 
L 495.55152 248.192 
L 495.50256 247.58 
L 495.42912 246.968 
L 495.3312 246.356 
L 495.2088 245.744 
L 495.06192 245.132 
L 494.89056 244.52 
L 494.69472 243.908 
L 494.4744 243.296 
L 494.2296 242.684 
L 493.96032 242.072 
L 493.66656 241.46 
L 493.34832 240.848 
L 493.0056 240.236 
L 492.6384 239.624 
L 492.24672 239.012 
L 491.83056 238.4 
L 491.38992 237.788 
L 490.9248 237.176 
L 490.4352 236.564 
L 489.92112 235.952 
L 489.38256 235.34 
L 488.81952 234.728 
L 488.232 234.116 
" clip-path="url(#p4731de1f96)" style="fill: none; stroke: #000000; stroke-width: 2; stroke-linecap: round"/>
   </g>
   <g id="line2d_3">
    <path d="M 477.522 256.76 
L 493.66656 256.76 
" clip-path="url(#p4731de1f96)" style="fill: none; stroke: #000000; stroke-width: 2; stroke-linecap: round"/>
   </g>
   <g id="line2d_4">
    <path d="M 477.522 241.46 
L 493.66656 241.46 
" clip-path="url(#p4731de1f96)" style="fill: none; stroke: #000000; stroke-width: 2; stroke-linecap: round"/>
   </g>
   <g id="line2d_5">
    <path d="M 536.886 249.11 
L 540.252 249.11 
" clip-path="url(#p4731de1f96)" style="fill: none; stroke: #000000; stroke-width: 2; stroke-linecap: round"/>
   </g>
   <g id="line2d_6">
    <path d="M 431.622 233.504 
L 448.670571 233.404082 
L 450.419143 233.104327 
L 452.167714 232.604735 
L 453.916286 231.905306 
L 455.664857 231.006041 
L 457.850571 229.600939 
L 460.036286 227.883592 
L 462.222 225.854 
L 464.407714 223.512163 
L 466.593429 220.858082 
L 468.342 218.51 
L 468.342 218.51 
L 465.719143 215.062816 
L 463.533429 212.533633 
L 461.347714 210.316694 
L 459.162 208.412 
L 456.976286 206.819551 
L 454.790571 205.539347 
L 453.042 204.74 
L 451.293429 204.14049 
L 449.544857 203.740816 
L 447.796286 203.54098 
L 446.922 203.516 
L 431.622 203.516 
L 431.622 203.516 
L 433.8252 205.964 
L 435.22056 207.8 
L 436.3956 209.636 
L 437.35032 211.472 
L 438.08472 213.308 
L 438.5988 215.144 
L 438.89256 216.98 
L 438.966 218.816 
L 438.81912 220.652 
L 438.45192 222.488 
L 437.8644 224.324 
L 437.05656 226.16 
L 436.0284 227.996 
L 434.77992 229.832 
L 433.31112 231.668 
L 431.622 233.504 
L 431.622 233.504 
" clip-path="url(#p4731de1f96)" style="fill: none; stroke: #000000; stroke-width: 2; stroke-linecap: round"/>
   </g>
   <g id="line2d_7">
    <path d="M 420.912 226.16 
L 437.05656 226.16 
" clip-path="url(#p4731de1f96)" style="fill: none; stroke: #000000; stroke-width: 2; stroke-linecap: round"/>
   </g>
   <g id="line2d_8">
    <path d="M 420.912 210.86 
L 437.05656 210.86 
" clip-path="url(#p4731de1f96)" style="fill: none; stroke: #000000; stroke-width: 2; stroke-linecap: round"/>
   </g>
   <g id="line2d_9">
    <path d="M 468.342 218.51 
L 479.052 218.51 
" clip-path="url(#p4731de1f96)" style="fill: none; stroke: #000000; stroke-width: 2; stroke-linecap: round"/>
   </g>
   <g id="line2d_10">
    <path d="M 391.842 203.21 
L 392.822274 203.178565 
L 393.798521 203.084387 
L 394.766727 202.927855 
L 395.722915 202.709611 
L 396.663156 202.430553 
L 397.583585 202.091826 
L 398.480421 201.694824 
L 399.349979 201.241176 
L 400.188684 200.732748 
L 400.993091 200.171628 
L 401.759894 199.560123 
L 402.485943 198.900745 
L 403.168253 198.196204 
L 403.804022 197.449394 
L 404.390635 196.663385 
L 404.925684 195.841406 
L 405.406969 194.986836 
L 405.832513 194.103185 
L 406.200567 193.194085 
L 406.509618 192.263272 
L 406.758397 191.31457 
L 406.945881 190.351878 
L 407.0713 189.379152 
L 407.134139 188.400389 
L 407.134139 187.419611 
L 407.0713 186.440848 
L 406.945881 185.468122 
L 406.758397 184.50543 
L 406.509618 183.556728 
L 406.200567 182.625915 
L 405.832513 181.716815 
L 405.406969 180.833164 
L 404.925684 179.978594 
L 404.390635 179.156615 
L 403.804022 178.370606 
L 403.168253 177.623796 
L 402.485943 176.919255 
L 401.759894 176.259877 
L 400.993091 175.648372 
L 400.188684 175.087252 
L 399.349979 174.578824 
L 398.480421 174.125176 
L 397.583585 173.728174 
L 396.663156 173.389447 
L 395.722915 173.110389 
L 394.766727 172.892145 
L 393.798521 172.735613 
L 392.822274 172.641435 
L 391.842 172.61 
L 391.842 172.61 
L 371.952 172.61 
L 371.952 187.91 
L 371.952 203.21 
L 391.842 203.21 
" clip-path="url(#p4731de1f96)" style="fill: none; stroke: #000000; stroke-width: 2; stroke-linecap: round"/>
   </g>
   <g id="line2d_11">
    <path d="M 361.242 195.56 
L 371.952 195.56 
" clip-path="url(#p4731de1f96)" style="fill: none; stroke: #000000; stroke-width: 2; stroke-linecap: round"/>
   </g>
   <g id="line2d_12">
    <path d="M 361.242 180.26 
L 371.952 180.26 
" clip-path="url(#p4731de1f96)" style="fill: none; stroke: #000000; stroke-width: 2; stroke-linecap: round"/>
   </g>
   <g id="line2d_13">
    <path d="M 407.142 187.91 
L 417.852 187.91 
" clip-path="url(#p4731de1f96)" style="fill: none; stroke: #000000; stroke-width: 2; stroke-linecap: round"/>
   </g>
   <g id="line2d_14">
    <path d="M 309.222 172.304 
L 326.270571 172.204082 
L 328.019143 171.904327 
L 329.767714 171.404735 
L 331.516286 170.705306 
L 333.264857 169.806041 
L 335.450571 168.400939 
L 337.636286 166.683592 
L 339.822 164.654 
L 342.007714 162.312163 
L 344.193429 159.658082 
L 345.942 157.31 
L 345.942 157.31 
L 343.319143 153.862816 
L 341.133429 151.333633 
L 338.947714 149.116694 
L 336.762 147.212 
L 334.576286 145.619551 
L 332.390571 144.339347 
L 330.642 143.54 
L 328.893429 142.94049 
L 327.144857 142.540816 
L 325.396286 142.34098 
L 324.522 142.316 
L 309.222 142.316 
L 311.4252 144.764 
L 312.82056 146.6 
L 313.9956 148.436 
L 314.95032 150.272 
L 315.68472 152.108 
L 316.1988 153.944 
L 316.49256 155.78 
L 316.566 157.616 
L 316.41912 159.452 
L 316.05192 161.288 
L 315.4644 163.124 
L 314.65656 164.96 
L 313.6284 166.796 
L 312.37992 168.632 
L 310.91112 170.468 
L 309.222 172.304 
L 309.222 172.304 
" clip-path="url(#p4731de1f96)" style="fill: none; stroke: #000000; stroke-width: 2; stroke-linecap: round"/>
   </g>
   <g id="line2d_15">
    <path d="M 298.512 164.96 
L 314.65656 164.96 
" clip-path="url(#p4731de1f96)" style="fill: none; stroke: #000000; stroke-width: 2; stroke-linecap: round"/>
   </g>
   <g id="line2d_16">
    <path d="M 298.512 149.66 
L 314.65656 149.66 
" clip-path="url(#p4731de1f96)" style="fill: none; stroke: #000000; stroke-width: 2; stroke-linecap: round"/>
   </g>
   <g id="line2d_17">
    <path d="M 353.286 157.31 
L 356.652 157.31 
" clip-path="url(#p4731de1f96)" style="fill: none; stroke: #000000; stroke-width: 2; stroke-linecap: round"/>
   </g>
   <g id="line2d_18">
    <path d="M 248.022 141.704 
L 265.070571 141.604082 
L 266.819143 141.304327 
L 268.567714 140.804735 
L 270.316286 140.105306 
L 272.064857 139.206041 
L 274.250571 137.800939 
L 276.436286 136.083592 
L 278.622 134.054 
L 280.807714 131.712163 
L 282.993429 129.058082 
L 284.742 126.71 
L 284.742 126.71 
L 282.119143 123.262816 
L 279.933429 120.733633 
L 277.747714 118.516694 
L 275.562 116.612 
L 273.376286 115.019551 
L 271.190571 113.739347 
L 269.442 112.94 
L 267.693429 112.34049 
L 265.944857 111.940816 
L 264.196286 111.74098 
L 263.322 111.716 
L 248.022 111.716 
L 248.022 111.716 
L 250.2252 114.164 
L 251.62056 116 
L 252.7956 117.836 
L 253.75032 119.672 
L 254.48472 121.508 
L 254.9988 123.344 
L 255.29256 125.18 
L 255.366 127.016 
L 255.21912 128.852 
L 254.85192 130.688 
L 254.2644 132.524 
L 253.45656 134.36 
L 252.4284 136.196 
L 251.17992 138.032 
L 249.71112 139.868 
L 248.022 141.704 
L 248.022 141.704 
" clip-path="url(#p4731de1f96)" style="fill: none; stroke: #000000; stroke-width: 2; stroke-linecap: round"/>
   </g>
   <g id="line2d_19">
    <path d="M 243.432 141.704 
L 244.01952 141.092 
L 244.58256 140.48 
L 245.12112 139.868 
L 245.6352 139.256 
L 246.1248 138.644 
L 246.58992 138.032 
L 247.03056 137.42 
L 247.44672 136.808 
L 247.8384 136.196 
L 248.2056 135.584 
L 248.54832 134.972 
L 248.86656 134.36 
L 249.16032 133.748 
L 249.4296 133.136 
L 249.6744 132.524 
L 249.89472 131.912 
L 250.09056 131.3 
L 250.26192 130.688 
L 250.4088 130.076 
L 250.5312 129.464 
L 250.62912 128.852 
L 250.70256 128.24 
L 250.75152 127.628 
L 250.776 127.016 
L 250.776 126.404 
L 250.75152 125.792 
L 250.70256 125.18 
L 250.62912 124.568 
L 250.5312 123.956 
L 250.4088 123.344 
L 250.26192 122.732 
L 250.09056 122.12 
L 249.89472 121.508 
L 249.6744 120.896 
L 249.4296 120.284 
L 249.16032 119.672 
L 248.86656 119.06 
L 248.54832 118.448 
L 248.2056 117.836 
L 247.8384 117.224 
L 247.44672 116.612 
L 247.03056 116 
L 246.58992 115.388 
L 246.1248 114.776 
L 245.6352 114.164 
L 245.12112 113.552 
L 244.58256 112.94 
L 244.01952 112.328 
L 243.432 111.716 
" clip-path="url(#p4731de1f96)" style="fill: none; stroke: #000000; stroke-width: 2; stroke-linecap: round"/>
   </g>
   <g id="line2d_20">
    <path d="M 232.722 134.36 
L 248.86656 134.36 
" clip-path="url(#p4731de1f96)" style="fill: none; stroke: #000000; stroke-width: 2; stroke-linecap: round"/>
   </g>
   <g id="line2d_21">
    <path d="M 232.722 119.06 
L 248.86656 119.06 
" clip-path="url(#p4731de1f96)" style="fill: none; stroke: #000000; stroke-width: 2; stroke-linecap: round"/>
   </g>
   <g id="line2d_22">
    <path d="M 292.086 126.71 
L 295.452 126.71 
" clip-path="url(#p4731de1f96)" style="fill: none; stroke: #000000; stroke-width: 2; stroke-linecap: round"/>
   </g>
   <g id="line2d_23">
    <path d="M 208.242 111.41 
L 209.222274 111.378565 
L 210.198521 111.284387 
L 211.166727 111.127855 
L 212.122915 110.909611 
L 213.063156 110.630553 
L 213.983585 110.291826 
L 214.880421 109.894824 
L 215.749979 109.441176 
L 216.588684 108.932748 
L 217.393091 108.371628 
L 218.159894 107.760123 
L 218.885943 107.100745 
L 219.568253 106.396204 
L 220.204022 105.649394 
L 220.790635 104.863385 
L 221.325684 104.041406 
L 221.806969 103.186836 
L 222.232513 102.303185 
L 222.600567 101.394085 
L 222.909618 100.463272 
L 223.158397 99.51457 
L 223.345881 98.551878 
L 223.4713 97.579152 
L 223.534139 96.600389 
L 223.534139 95.619611 
L 223.4713 94.640848 
L 223.345881 93.668122 
L 223.158397 92.70543 
L 222.909618 91.756728 
L 222.600567 90.825915 
L 222.232513 89.916815 
L 221.806969 89.033164 
L 221.325684 88.178594 
L 220.790635 87.356615 
L 220.204022 86.570606 
L 219.568253 85.823796 
L 218.885943 85.119255 
L 218.159894 84.459877 
L 217.393091 83.848372 
L 216.588684 83.287252 
L 215.749979 82.778824 
L 214.880421 82.325176 
L 213.983585 81.928174 
L 213.063156 81.589447 
L 212.122915 81.310389 
L 211.166727 81.092145 
L 210.198521 80.935613 
L 209.222274 80.841435 
L 208.242 80.81 
L 208.242 80.81 
L 188.352 80.81 
L 188.352 96.11 
L 188.352 111.41 
L 208.242 111.41 
" clip-path="url(#p4731de1f96)" style="fill: none; stroke: #000000; stroke-width: 2; stroke-linecap: round"/>
   </g>
   <g id="line2d_24">
    <path d="M 177.642 103.76 
L 188.352 103.76 
" clip-path="url(#p4731de1f96)" style="fill: none; stroke: #000000; stroke-width: 2; stroke-linecap: round"/>
   </g>
   <g id="line2d_25">
    <path d="M 177.642 88.46 
L 188.352 88.46 
" clip-path="url(#p4731de1f96)" style="fill: none; stroke: #000000; stroke-width: 2; stroke-linecap: round"/>
   </g>
   <g id="line2d_26">
    <path d="M 223.542 96.11 
L 234.252 96.11 
" clip-path="url(#p4731de1f96)" style="fill: none; stroke: #000000; stroke-width: 2; stroke-linecap: round"/>
   </g>
   <g id="line2d_27">
    <path d="M 125.622 80.504 
L 142.670571 80.404082 
L 144.419143 80.104327 
L 146.167714 79.604735 
L 147.916286 78.905306 
L 149.664857 78.006041 
L 151.850571 76.600939 
L 154.036286 74.883592 
L 156.222 72.854 
L 158.407714 70.512163 
L 160.593429 67.858082 
L 162.342 65.51 
L 162.342 65.51 
L 159.719143 62.062816 
L 157.533429 59.533633 
L 155.347714 57.316694 
L 153.162 55.412 
L 150.976286 53.819551 
L 148.790571 52.539347 
L 147.042 51.74 
L 145.293429 51.14049 
L 143.544857 50.740816 
L 141.796286 50.54098 
L 140.922 50.516 
L 125.622 50.516 
L 125.622 50.516 
L 127.8252 52.964 
L 129.22056 54.8 
L 130.3956 56.636 
L 131.35032 58.472 
L 132.08472 60.308 
L 132.5988 62.144 
L 132.89256 63.98 
L 132.966 65.816 
L 132.81912 67.652 
L 132.45192 69.488 
L 131.8644 71.324 
L 131.05656 73.16 
L 130.0284 74.996 
L 128.77992 76.832 
L 127.31112 78.668 
L 125.622 80.504 
L 125.622 80.504 
" clip-path="url(#p4731de1f96)" style="fill: none; stroke: #000000; stroke-width: 2; stroke-linecap: round"/>
   </g>
   <g id="line2d_28">
    <path d="M 121.032 80.504 
L 121.61952 79.892 
L 122.18256 79.28 
L 122.72112 78.668 
L 123.2352 78.056 
L 123.7248 77.444 
L 124.18992 76.832 
L 124.63056 76.22 
L 125.04672 75.608 
L 125.4384 74.996 
L 125.8056 74.384 
L 126.14832 73.772 
L 126.46656 73.16 
L 126.76032 72.548 
L 127.0296 71.936 
L 127.2744 71.324 
L 127.49472 70.712 
L 127.69056 70.1 
L 127.86192 69.488 
L 128.0088 68.876 
L 128.1312 68.264 
L 128.22912 67.652 
L 128.30256 67.04 
L 128.35152 66.428 
L 128.376 65.816 
L 128.376 65.204 
L 128.35152 64.592 
L 128.30256 63.98 
L 128.22912 63.368 
L 128.1312 62.756 
L 128.0088 62.144 
L 127.86192 61.532 
L 127.69056 60.92 
L 127.49472 60.308 
L 127.2744 59.696 
L 127.0296 59.084 
L 126.76032 58.472 
L 126.46656 57.86 
L 126.14832 57.248 
L 125.8056 56.636 
L 125.4384 56.024 
L 125.04672 55.412 
L 124.63056 54.8 
L 124.18992 54.188 
L 123.7248 53.576 
L 123.2352 52.964 
L 122.72112 52.352 
L 122.18256 51.74 
L 121.61952 51.128 
L 121.032 50.516 
" clip-path="url(#p4731de1f96)" style="fill: none; stroke: #000000; stroke-width: 2; stroke-linecap: round"/>
   </g>
   <g id="line2d_29">
    <path d="M 110.322 73.16 
L 126.46656 73.16 
" clip-path="url(#p4731de1f96)" style="fill: none; stroke: #000000; stroke-width: 2; stroke-linecap: round"/>
   </g>
   <g id="line2d_30">
    <path d="M 110.322 57.86 
L 126.46656 57.86 
" clip-path="url(#p4731de1f96)" style="fill: none; stroke: #000000; stroke-width: 2; stroke-linecap: round"/>
   </g>
   <g id="line2d_31">
    <path d="M 162.342 65.51 
L 173.052 65.51 
" clip-path="url(#p4731de1f96)" style="fill: none; stroke: #000000; stroke-width: 2; stroke-linecap: round"/>
   </g>
   <g id="line2d_32">
    <path d="M 64.422 49.904 
L 81.470571 49.804082 
L 83.219143 49.504327 
L 84.967714 49.004735 
L 86.716286 48.305306 
L 88.464857 47.406041 
L 90.650571 46.000939 
L 92.836286 44.283592 
L 95.022 42.254 
L 97.207714 39.912163 
L 99.393429 37.258082 
L 101.142 34.91 
L 101.142 34.91 
L 98.519143 31.462816 
L 96.333429 28.933633 
L 94.147714 26.716694 
L 91.962 24.812 
L 89.776286 23.219551 
L 87.590571 21.939347 
L 85.842 21.14 
L 84.093429 20.54049 
L 82.344857 20.140816 
L 80.596286 19.94098 
L 79.722 19.916 
L 64.422 19.916 
L 64.422 19.916 
L 66.6252 22.364 
L 68.02056 24.2 
L 69.1956 26.036 
L 70.15032 27.872 
L 70.88472 29.708 
L 71.3988 31.544 
L 71.69256 33.38 
L 71.766 35.216 
L 71.61912 37.052 
L 71.25192 38.888 
L 70.6644 40.724 
L 69.85656 42.56 
L 68.8284 44.396 
L 67.57992 46.232 
L 66.11112 48.068 
L 64.422 49.904 
L 64.422 49.904 
" clip-path="url(#p4731de1f96)" style="fill: none; stroke: #000000; stroke-width: 2; stroke-linecap: round"/>
   </g>
   <g id="line2d_33">
    <path d="M 53.712 42.56 
L 69.85656 42.56 
" clip-path="url(#p4731de1f96)" style="fill: none; stroke: #000000; stroke-width: 2; stroke-linecap: round"/>
   </g>
   <g id="line2d_34">
    <path d="M 53.712 27.26 
L 69.85656 27.26 
" clip-path="url(#p4731de1f96)" style="fill: none; stroke: #000000; stroke-width: 2; stroke-linecap: round"/>
   </g>
   <g id="line2d_35">
    <path d="M 101.142 34.91 
L 111.852 34.91 
" clip-path="url(#p4731de1f96)" style="fill: none; stroke: #000000; stroke-width: 2; stroke-linecap: round"/>
   </g>
   <g id="line2d_36">
    <path d="M 110.322 57.86 
L 111.852 57.86 
L 111.852 34.91 
" clip-path="url(#p4731de1f96)" style="fill: none; stroke: #000000; stroke-width: 2; stroke-linecap: round"/>
   </g>
   <g id="line2d_37">
    <path d="M 177.642 88.46 
L 173.052 88.46 
L 173.052 65.51 
" clip-path="url(#p4731de1f96)" style="fill: none; stroke: #000000; stroke-width: 2; stroke-linecap: round"/>
   </g>
   <g id="line2d_38">
    <path d="M 232.722 119.06 
L 234.252 119.06 
L 234.252 96.11 
" clip-path="url(#p4731de1f96)" style="fill: none; stroke: #000000; stroke-width: 2; stroke-linecap: round"/>
   </g>
   <g id="line2d_39">
    <path d="M 298.512 149.66 
L 295.452 149.66 
L 295.452 126.71 
" clip-path="url(#p4731de1f96)" style="fill: none; stroke: #000000; stroke-width: 2; stroke-linecap: round"/>
   </g>
   <g id="line2d_40">
    <path d="M 361.242 180.26 
L 356.652 180.26 
L 356.652 157.31 
" clip-path="url(#p4731de1f96)" style="fill: none; stroke: #000000; stroke-width: 2; stroke-linecap: round"/>
   </g>
   <g id="line2d_41">
    <path d="M 420.912 210.86 
L 417.852 210.86 
L 417.852 187.91 
" clip-path="url(#p4731de1f96)" style="fill: none; stroke: #000000; stroke-width: 2; stroke-linecap: round"/>
   </g>
   <g id="line2d_42">
    <path d="M 477.522 241.46 
L 479.052 241.46 
L 479.052 218.51 
" clip-path="url(#p4731de1f96)" style="fill: none; stroke: #000000; stroke-width: 2; stroke-linecap: round"/>
   </g>
   <g id="text_1">
    <g clip-path="url(#p4731de1f96)">
     <!-- Input9 -->
     <g transform="translate(434.141688 260.209219)scale(0.125 -0.125)">
      <defs>
       <path id="DejaVuSans-49" d="M 628 4666 
L 1259 4666 
L 1259 0 
L 628 0 
L 628 4666 
z
" transform="scale(0.015625)"/>
       <path id="DejaVuSans-6e" d="M 3513 2113 
L 3513 0 
L 2938 0 
L 2938 2094 
Q 2938 2591 2744 2837 
Q 2550 3084 2163 3084 
Q 1697 3084 1428 2787 
Q 1159 2491 1159 1978 
L 1159 0 
L 581 0 
L 581 3500 
L 1159 3500 
L 1159 2956 
Q 1366 3272 1645 3428 
Q 1925 3584 2291 3584 
Q 2894 3584 3203 3211 
Q 3513 2838 3513 2113 
z
" transform="scale(0.015625)"/>
       <path id="DejaVuSans-70" d="M 1159 525 
L 1159 -1331 
L 581 -1331 
L 581 3500 
L 1159 3500 
L 1159 2969 
Q 1341 3281 1617 3432 
Q 1894 3584 2278 3584 
Q 2916 3584 3314 3078 
Q 3713 2572 3713 1747 
Q 3713 922 3314 415 
Q 2916 -91 2278 -91 
Q 1894 -91 1617 61 
Q 1341 213 1159 525 
z
M 3116 1747 
Q 3116 2381 2855 2742 
Q 2594 3103 2138 3103 
Q 1681 3103 1420 2742 
Q 1159 2381 1159 1747 
Q 1159 1113 1420 752 
Q 1681 391 2138 391 
Q 2594 391 2855 752 
Q 3116 1113 3116 1747 
z
" transform="scale(0.015625)"/>
       <path id="DejaVuSans-75" d="M 544 1381 
L 544 3500 
L 1119 3500 
L 1119 1403 
Q 1119 906 1312 657 
Q 1506 409 1894 409 
Q 2359 409 2629 706 
Q 2900 1003 2900 1516 
L 2900 3500 
L 3475 3500 
L 3475 0 
L 2900 0 
L 2900 538 
Q 2691 219 2414 64 
Q 2138 -91 1772 -91 
Q 1169 -91 856 284 
Q 544 659 544 1381 
z
M 1991 3584 
L 1991 3584 
z
" transform="scale(0.015625)"/>
       <path id="DejaVuSans-74" d="M 1172 4494 
L 1172 3500 
L 2356 3500 
L 2356 3053 
L 1172 3053 
L 1172 1153 
Q 1172 725 1289 603 
Q 1406 481 1766 481 
L 2356 481 
L 2356 0 
L 1766 0 
Q 1100 0 847 248 
Q 594 497 594 1153 
L 594 3053 
L 172 3053 
L 172 3500 
L 594 3500 
L 594 4494 
L 1172 4494 
z
" transform="scale(0.015625)"/>
       <path id="DejaVuSans-39" d="M 703 97 
L 703 672 
Q 941 559 1184 500 
Q 1428 441 1663 441 
Q 2288 441 2617 861 
Q 2947 1281 2994 2138 
Q 2813 1869 2534 1725 
Q 2256 1581 1919 1581 
Q 1219 1581 811 2004 
Q 403 2428 403 3163 
Q 403 3881 828 4315 
Q 1253 4750 1959 4750 
Q 2769 4750 3195 4129 
Q 3622 3509 3622 2328 
Q 3622 1225 3098 567 
Q 2575 -91 1691 -91 
Q 1453 -91 1209 -44 
Q 966 3 703 97 
z
M 1959 2075 
Q 2384 2075 2632 2365 
Q 2881 2656 2881 3163 
Q 2881 3666 2632 3958 
Q 2384 4250 1959 4250 
Q 1534 4250 1286 3958 
Q 1038 3666 1038 3163 
Q 1038 2656 1286 2365 
Q 1534 2075 1959 2075 
z
" transform="scale(0.015625)"/>
      </defs>
      <use xlink:href="#DejaVuSans-49"/>
      <use xlink:href="#DejaVuSans-6e" x="29.492188"/>
      <use xlink:href="#DejaVuSans-70" x="92.871094"/>
      <use xlink:href="#DejaVuSans-75" x="156.347656"/>
      <use xlink:href="#DejaVuSans-74" x="219.726562"/>
      <use xlink:href="#DejaVuSans-39" x="258.935547"/>
     </g>
    </g>
   </g>
   <g id="text_2">
    <g clip-path="url(#p4731de1f96)">
     <!-- Input8 -->
     <g transform="translate(377.531688 229.609219)scale(0.125 -0.125)">
      <defs>
       <path id="DejaVuSans-38" d="M 2034 2216 
Q 1584 2216 1326 1975 
Q 1069 1734 1069 1313 
Q 1069 891 1326 650 
Q 1584 409 2034 409 
Q 2484 409 2743 651 
Q 3003 894 3003 1313 
Q 3003 1734 2745 1975 
Q 2488 2216 2034 2216 
z
M 1403 2484 
Q 997 2584 770 2862 
Q 544 3141 544 3541 
Q 544 4100 942 4425 
Q 1341 4750 2034 4750 
Q 2731 4750 3128 4425 
Q 3525 4100 3525 3541 
Q 3525 3141 3298 2862 
Q 3072 2584 2669 2484 
Q 3125 2378 3379 2068 
Q 3634 1759 3634 1313 
Q 3634 634 3220 271 
Q 2806 -91 2034 -91 
Q 1263 -91 848 271 
Q 434 634 434 1313 
Q 434 1759 690 2068 
Q 947 2378 1403 2484 
z
M 1172 3481 
Q 1172 3119 1398 2916 
Q 1625 2713 2034 2713 
Q 2441 2713 2670 2916 
Q 2900 3119 2900 3481 
Q 2900 3844 2670 4047 
Q 2441 4250 2034 4250 
Q 1625 4250 1398 4047 
Q 1172 3844 1172 3481 
z
" transform="scale(0.015625)"/>
      </defs>
      <use xlink:href="#DejaVuSans-49"/>
      <use xlink:href="#DejaVuSans-6e" x="29.492188"/>
      <use xlink:href="#DejaVuSans-70" x="92.871094"/>
      <use xlink:href="#DejaVuSans-75" x="156.347656"/>
      <use xlink:href="#DejaVuSans-74" x="219.726562"/>
      <use xlink:href="#DejaVuSans-38" x="258.935547"/>
     </g>
    </g>
   </g>
   <g id="text_3">
    <g clip-path="url(#p4731de1f96)">
     <!-- Input7 -->
     <g transform="translate(317.861688 199.009219)scale(0.125 -0.125)">
      <defs>
       <path id="DejaVuSans-37" d="M 525 4666 
L 3525 4666 
L 3525 4397 
L 1831 0 
L 1172 0 
L 2766 4134 
L 525 4134 
L 525 4666 
z
" transform="scale(0.015625)"/>
      </defs>
      <use xlink:href="#DejaVuSans-49"/>
      <use xlink:href="#DejaVuSans-6e" x="29.492188"/>
      <use xlink:href="#DejaVuSans-70" x="92.871094"/>
      <use xlink:href="#DejaVuSans-75" x="156.347656"/>
      <use xlink:href="#DejaVuSans-74" x="219.726562"/>
      <use xlink:href="#DejaVuSans-37" x="258.935547"/>
     </g>
    </g>
   </g>
   <g id="text_4">
    <g clip-path="url(#p4731de1f96)">
     <!-- Input6 -->
     <g transform="translate(255.131688 168.409219)scale(0.125 -0.125)">
      <defs>
       <path id="DejaVuSans-36" d="M 2113 2584 
Q 1688 2584 1439 2293 
Q 1191 2003 1191 1497 
Q 1191 994 1439 701 
Q 1688 409 2113 409 
Q 2538 409 2786 701 
Q 3034 994 3034 1497 
Q 3034 2003 2786 2293 
Q 2538 2584 2113 2584 
z
M 3366 4563 
L 3366 3988 
Q 3128 4100 2886 4159 
Q 2644 4219 2406 4219 
Q 1781 4219 1451 3797 
Q 1122 3375 1075 2522 
Q 1259 2794 1537 2939 
Q 1816 3084 2150 3084 
Q 2853 3084 3261 2657 
Q 3669 2231 3669 1497 
Q 3669 778 3244 343 
Q 2819 -91 2113 -91 
Q 1303 -91 875 529 
Q 447 1150 447 2328 
Q 447 3434 972 4092 
Q 1497 4750 2381 4750 
Q 2619 4750 2861 4703 
Q 3103 4656 3366 4563 
z
" transform="scale(0.015625)"/>
      </defs>
      <use xlink:href="#DejaVuSans-49"/>
      <use xlink:href="#DejaVuSans-6e" x="29.492188"/>
      <use xlink:href="#DejaVuSans-70" x="92.871094"/>
      <use xlink:href="#DejaVuSans-75" x="156.347656"/>
      <use xlink:href="#DejaVuSans-74" x="219.726562"/>
      <use xlink:href="#DejaVuSans-36" x="258.935547"/>
     </g>
    </g>
   </g>
   <g id="text_5">
    <g clip-path="url(#p4731de1f96)">
     <!-- Input5 -->
     <g transform="translate(189.341688 137.809219)scale(0.125 -0.125)">
      <defs>
       <path id="DejaVuSans-35" d="M 691 4666 
L 3169 4666 
L 3169 4134 
L 1269 4134 
L 1269 2991 
Q 1406 3038 1543 3061 
Q 1681 3084 1819 3084 
Q 2600 3084 3056 2656 
Q 3513 2228 3513 1497 
Q 3513 744 3044 326 
Q 2575 -91 1722 -91 
Q 1428 -91 1123 -41 
Q 819 9 494 109 
L 494 744 
Q 775 591 1075 516 
Q 1375 441 1709 441 
Q 2250 441 2565 725 
Q 2881 1009 2881 1497 
Q 2881 1984 2565 2268 
Q 2250 2553 1709 2553 
Q 1456 2553 1204 2497 
Q 953 2441 691 2322 
L 691 4666 
z
" transform="scale(0.015625)"/>
      </defs>
      <use xlink:href="#DejaVuSans-49"/>
      <use xlink:href="#DejaVuSans-6e" x="29.492188"/>
      <use xlink:href="#DejaVuSans-70" x="92.871094"/>
      <use xlink:href="#DejaVuSans-75" x="156.347656"/>
      <use xlink:href="#DejaVuSans-74" x="219.726562"/>
      <use xlink:href="#DejaVuSans-35" x="258.935547"/>
     </g>
    </g>
   </g>
   <g id="text_6">
    <g clip-path="url(#p4731de1f96)">
     <!-- Input4 -->
     <g transform="translate(134.261688 107.209219)scale(0.125 -0.125)">
      <defs>
       <path id="DejaVuSans-34" d="M 2419 4116 
L 825 1625 
L 2419 1625 
L 2419 4116 
z
M 2253 4666 
L 3047 4666 
L 3047 1625 
L 3713 1625 
L 3713 1100 
L 3047 1100 
L 3047 0 
L 2419 0 
L 2419 1100 
L 313 1100 
L 313 1709 
L 2253 4666 
z
" transform="scale(0.015625)"/>
      </defs>
      <use xlink:href="#DejaVuSans-49"/>
      <use xlink:href="#DejaVuSans-6e" x="29.492188"/>
      <use xlink:href="#DejaVuSans-70" x="92.871094"/>
      <use xlink:href="#DejaVuSans-75" x="156.347656"/>
      <use xlink:href="#DejaVuSans-74" x="219.726562"/>
      <use xlink:href="#DejaVuSans-34" x="258.935547"/>
     </g>
    </g>
   </g>
   <g id="text_7">
    <g clip-path="url(#p4731de1f96)">
     <!-- Input3 -->
     <g transform="translate(66.941688 76.609219)scale(0.125 -0.125)">
      <defs>
       <path id="DejaVuSans-33" d="M 2597 2516 
Q 3050 2419 3304 2112 
Q 3559 1806 3559 1356 
Q 3559 666 3084 287 
Q 2609 -91 1734 -91 
Q 1441 -91 1130 -33 
Q 819 25 488 141 
L 488 750 
Q 750 597 1062 519 
Q 1375 441 1716 441 
Q 2309 441 2620 675 
Q 2931 909 2931 1356 
Q 2931 1769 2642 2001 
Q 2353 2234 1838 2234 
L 1294 2234 
L 1294 2753 
L 1863 2753 
Q 2328 2753 2575 2939 
Q 2822 3125 2822 3475 
Q 2822 3834 2567 4026 
Q 2313 4219 1838 4219 
Q 1578 4219 1281 4162 
Q 984 4106 628 3988 
L 628 4550 
Q 988 4650 1302 4700 
Q 1616 4750 1894 4750 
Q 2613 4750 3031 4423 
Q 3450 4097 3450 3541 
Q 3450 3153 3228 2886 
Q 3006 2619 2597 2516 
z
" transform="scale(0.015625)"/>
      </defs>
      <use xlink:href="#DejaVuSans-49"/>
      <use xlink:href="#DejaVuSans-6e" x="29.492188"/>
      <use xlink:href="#DejaVuSans-70" x="92.871094"/>
      <use xlink:href="#DejaVuSans-75" x="156.347656"/>
      <use xlink:href="#DejaVuSans-74" x="219.726562"/>
      <use xlink:href="#DejaVuSans-33" x="258.935547"/>
     </g>
    </g>
   </g>
   <g id="text_8">
    <g clip-path="url(#p4731de1f96)">
     <!-- Input1 -->
     <g transform="translate(10.331688 30.709219)scale(0.125 -0.125)">
      <defs>
       <path id="DejaVuSans-31" d="M 794 531 
L 1825 531 
L 1825 4091 
L 703 3866 
L 703 4441 
L 1819 4666 
L 2450 4666 
L 2450 531 
L 3481 531 
L 3481 0 
L 794 0 
L 794 531 
z
" transform="scale(0.015625)"/>
      </defs>
      <use xlink:href="#DejaVuSans-49"/>
      <use xlink:href="#DejaVuSans-6e" x="29.492188"/>
      <use xlink:href="#DejaVuSans-70" x="92.871094"/>
      <use xlink:href="#DejaVuSans-75" x="156.347656"/>
      <use xlink:href="#DejaVuSans-74" x="219.726562"/>
      <use xlink:href="#DejaVuSans-31" x="258.935547"/>
     </g>
    </g>
   </g>
   <g id="text_9">
    <g clip-path="url(#p4731de1f96)">
     <!-- Input2 -->
     <g transform="translate(10.331688 46.009219)scale(0.125 -0.125)">
      <defs>
       <path id="DejaVuSans-32" d="M 1228 531 
L 3431 531 
L 3431 0 
L 469 0 
L 469 531 
Q 828 903 1448 1529 
Q 2069 2156 2228 2338 
Q 2531 2678 2651 2914 
Q 2772 3150 2772 3378 
Q 2772 3750 2511 3984 
Q 2250 4219 1831 4219 
Q 1534 4219 1204 4116 
Q 875 4013 500 3803 
L 500 4441 
Q 881 4594 1212 4672 
Q 1544 4750 1819 4750 
Q 2544 4750 2975 4387 
Q 3406 4025 3406 3419 
Q 3406 3131 3298 2873 
Q 3191 2616 2906 2266 
Q 2828 2175 2409 1742 
Q 1991 1309 1228 531 
z
" transform="scale(0.015625)"/>
      </defs>
      <use xlink:href="#DejaVuSans-49"/>
      <use xlink:href="#DejaVuSans-6e" x="29.492188"/>
      <use xlink:href="#DejaVuSans-70" x="92.871094"/>
      <use xlink:href="#DejaVuSans-75" x="156.347656"/>
      <use xlink:href="#DejaVuSans-74" x="219.726562"/>
      <use xlink:href="#DejaVuSans-32" x="258.935547"/>
     </g>
    </g>
   </g>
  </g>
 </g>
 <defs>
  <clipPath id="p4731de1f96">
   <rect x="7.2" y="7.2" width="536.112" height="263.5"/>
  </clipPath>
 </defs>
</svg>
